<svg xmlns="http://www.w3.org/2000/svg" viewBox="0 0 640 400" role="img" aria-labelledby="kl-57-title">
  <title id="kl-57-title">D_KL(P || Q) ~ 0.085 nats; P=[0.7,0.2,0.1], Q=[0.5,0.3,0.2]</title>
  <style>
    .ink { fill: #1A1A1A; stroke: #1A1A1A; }
    .muted { fill: #5C6570; stroke: #5C6570; }
    .accent { fill: #2F6FED; stroke: #2F6FED; }
    .hi { fill: #C45C0A; stroke: #C45C0A; }
    .axis { fill: none; stroke: #1A1A1A; }
    .grid { fill: none; stroke: #5C6570; }
    text { font-family: ui-sans-serif, system-ui, sans-serif; }
    @media (prefers-color-scheme: dark) {
      .ink { fill: #E8EAED; stroke: #E8EAED; }
      .muted { fill: #9AA0A6; stroke: #9AA0A6; }
      .accent { fill: #8AB4F8; stroke: #8AB4F8; }
      .hi { fill: #F9AB00; stroke: #F9AB00; }
      .axis { stroke: #E8EAED; }
      .grid { stroke: #9AA0A6; }
    }
  </style>

  <text id="kl-57-heading" class="ink" x="320" y="26" text-anchor="middle" font-size="16" font-weight="600">D_KL(P || Q) &#x2248; 0.085 nats</text>

  <line class="axis" x1="64" y1="300" x2="600" y2="300" stroke-width="1.25"/>
  <line class="axis" x1="64" y1="56" x2="64" y2="300" stroke-width="1.25"/>
  <line class="grid" x1="64" y1="90" x2="600" y2="90" stroke-width="1" stroke-dasharray="4 4" opacity="0.35"/>
  <line class="grid" x1="64" y1="180" x2="600" y2="180" stroke-width="1" stroke-dasharray="4 4" opacity="0.35"/>

  <!-- scale: 0.7 -> 210px; baseline 300 -->
  <rect class="accent" x="108" y="90" width="40" height="210" rx="2"/>
  <rect class="hi" x="156" y="150" width="40" height="150" rx="2"/>
  <text class="accent" x="128" y="78" text-anchor="middle" font-size="12" font-weight="600" stroke="none">0.7</text>
  <text class="hi" x="176" y="138" text-anchor="middle" font-size="12" font-weight="600" stroke="none">0.5</text>
  <text class="ink" x="152" y="322" text-anchor="middle" font-size="13">x1</text>

  <rect class="accent" x="288" y="240" width="40" height="60" rx="2"/>
  <rect class="hi" x="336" y="210" width="40" height="90" rx="2"/>
  <text class="accent" x="308" y="228" text-anchor="middle" font-size="12" font-weight="600" stroke="none">0.2</text>
  <text class="hi" x="356" y="198" text-anchor="middle" font-size="12" font-weight="600" stroke="none">0.3</text>
  <text class="ink" x="332" y="322" text-anchor="middle" font-size="13">x2</text>

  <rect class="accent" x="468" y="270" width="40" height="30" rx="2"/>
  <rect class="hi" x="516" y="240" width="40" height="60" rx="2"/>
  <text class="accent" x="488" y="258" text-anchor="middle" font-size="12" font-weight="600" stroke="none">0.1</text>
  <text class="hi" x="536" y="228" text-anchor="middle" font-size="12" font-weight="600" stroke="none">0.2</text>
  <text class="ink" x="512" y="322" text-anchor="middle" font-size="13">x3</text>

  <text class="muted" x="54" y="304" text-anchor="end" font-size="11">0</text>
  <text class="muted" x="54" y="184" text-anchor="end" font-size="11">0.4</text>
  <text class="muted" x="54" y="94" text-anchor="end" font-size="11">0.7</text>

  <rect class="accent" x="80" y="348" width="14" height="14" rx="2"/>
  <text class="ink" x="100" y="360" text-anchor="start" font-size="12" stroke="none">P = [0.7, 0.2, 0.1]</text>
  <rect class="hi" x="280" y="348" width="14" height="14" rx="2"/>
  <text class="ink" x="300" y="360" text-anchor="start" font-size="12" stroke="none">Q = [0.5, 0.3, 0.2]</text>
  <text class="muted" x="560" y="360" text-anchor="end" font-size="12">0.085 nats</text>
</svg>
