<svg xmlns="http://www.w3.org/2000/svg" viewBox="0 0 720 400" role="img" aria-labelledby="sma-162-title">
  <title id="sma-162-title">SMA w=3 of [10, 12, 15, 14, 16, 18, 17] starts at 12.33</title>
  <style>
    .ink { fill: #1A1A1A; stroke: #1A1A1A; }
    .muted { fill: #5C6570; stroke: #5C6570; }
    .accent { fill: none; stroke: #2F6FED; }
    .accent-fill { fill: #2F6FED; stroke: #2F6FED; }
    .hi { fill: none; stroke: #C45C0A; }
    .hi-fill { fill: #C45C0A; stroke: #C45C0A; }
    .axis { fill: none; stroke: #1A1A1A; }
    .grid { fill: none; stroke: #5C6570; }
    .band { fill: #2F6FED; stroke: none; }
    text { font-family: ui-sans-serif, system-ui, sans-serif; }
    
  </style>

  <text id="sma-162-heading" class="ink" x="360" y="24" text-anchor="middle" font-size="16" font-weight="600">SMA(w=3): first full window = 12.33</text>

  <rect class="band" x="48" y="152" width="266" height="140" opacity="0.08" rx="4"/>

  <line class="grid" x1="70" y1="276" x2="650" y2="276" stroke-width="1" stroke-dasharray="4 4" opacity="0.35"/>
  <line class="grid" x1="70" y1="232" x2="650" y2="232" stroke-width="1" stroke-dasharray="4 4" opacity="0.35"/>
  <line class="grid" x1="70" y1="188" x2="650" y2="188" stroke-width="1" stroke-dasharray="4 4" opacity="0.35"/>
  <line class="grid" x1="70" y1="144" x2="650" y2="144" stroke-width="1" stroke-dasharray="4 4" opacity="0.35"/>
  <line class="grid" x1="70" y1="100" x2="650" y2="100" stroke-width="1" stroke-dasharray="4 4" opacity="0.35"/>

  <line class="axis" x1="70" y1="320" x2="650" y2="320" stroke-width="1.25"/>
  <line class="axis" x1="70" y1="52" x2="70" y2="320" stroke-width="1.25"/>

  <polyline id="sma-162-series" class="accent" fill="none" stroke-width="2.5" stroke-linejoin="round" stroke-linecap="round"
            points="90,276 180,232 270,166 360,188 450,144 540,100 630,122"/>
  <polyline id="sma-162-sma" class="hi" fill="none" stroke-width="2.5" stroke-linejoin="round" stroke-linecap="round"
            points="270,224.7 360,195.3 450,166 540,144 630,122"/>

  <circle class="accent-fill" cx="90" cy="276" r="5" data-allow-overlap="1"/>
  <circle class="accent-fill" cx="180" cy="232" r="5" data-allow-overlap="1"/>
  <circle class="accent-fill" cx="270" cy="166" r="5" data-allow-overlap="1"/>
  <circle class="accent-fill" cx="360" cy="188" r="5" data-allow-overlap="1"/>
  <circle class="accent-fill" cx="450" cy="144" r="5" data-allow-overlap="1"/>
  <circle class="accent-fill" cx="540" cy="100" r="5" data-allow-overlap="1"/>
  <circle class="accent-fill" cx="630" cy="122" r="5" data-allow-overlap="1"/>

  <circle class="hi-fill" cx="270" cy="224.7" r="5" data-allow-overlap="1"/>
  <circle class="hi-fill" cx="360" cy="195.3" r="4.5" data-allow-overlap="1"/>
  <circle class="hi-fill" cx="450" cy="166" r="4.5" data-allow-overlap="1"/>
  <circle class="hi-fill" cx="540" cy="144" r="4.5" data-allow-overlap="1"/>
  <circle class="hi-fill" cx="630" cy="122" r="4.5" data-allow-overlap="1"/>

  <text class="muted" x="90" y="298" text-anchor="middle" font-size="11" stroke="none">10</text>
  <text class="muted" x="180" y="218" text-anchor="middle" font-size="11" stroke="none">12</text>
  <text class="muted" x="270" y="152" text-anchor="middle" font-size="11" stroke="none">15</text>
  <text class="muted" x="360" y="176" text-anchor="middle" font-size="11" stroke="none">14</text>
  <text class="muted" x="450" y="132" text-anchor="middle" font-size="11" stroke="none">16</text>
  <text class="muted" x="540" y="88" text-anchor="middle" font-size="11" stroke="none">18</text>
  <text class="muted" x="648" y="110" text-anchor="start" font-size="11" stroke="none">17</text>

  <text class="hi-fill" x="270" y="246" text-anchor="middle" font-size="11" stroke="none">12.33</text>
  <text class="hi-fill" x="392" y="214" text-anchor="start" font-size="11" stroke="none">13.67</text>
  <text class="hi-fill" x="468" y="180" text-anchor="start" font-size="11" stroke="none">15.00</text>
  <text class="hi-fill" x="558" y="158" text-anchor="start" font-size="11" stroke="none">16.00</text>
  <text class="hi-fill" x="630" y="142" text-anchor="middle" font-size="11" stroke="none">17.00</text>

  <text class="ink" x="181" y="76" text-anchor="middle" font-size="12">w=3: (10+12+15)/3 = 12.33</text>

  <circle class="accent-fill" cx="96" cy="48" r="4"/>
  <text class="muted" x="106" y="52" text-anchor="start" font-size="12" stroke="none">y_t</text>
  <circle class="hi-fill" cx="160" cy="48" r="4"/>
  <text class="muted" x="170" y="52" text-anchor="start" font-size="12" stroke="none">SMA</text>
  <text class="muted" x="580" y="52" text-anchor="middle" font-size="12" stroke="none">t = 1, 2: NaN</text>

  <text class="muted" x="90" y="342" text-anchor="middle" font-size="12">1</text>
  <text class="muted" x="180" y="342" text-anchor="middle" font-size="12">2</text>
  <text class="muted" x="270" y="342" text-anchor="middle" font-size="12">3</text>
  <text class="muted" x="360" y="342" text-anchor="middle" font-size="12">4</text>
  <text class="muted" x="450" y="342" text-anchor="middle" font-size="12">5</text>
  <text class="muted" x="540" y="342" text-anchor="middle" font-size="12">6</text>
  <text class="muted" x="630" y="342" text-anchor="middle" font-size="12">7</text>
  <text class="ink" x="360" y="368" text-anchor="middle" font-size="13">t</text>

  <text class="muted" x="60" y="280" text-anchor="end" font-size="12">10</text>
  <text class="muted" x="60" y="236" text-anchor="end" font-size="12">12</text>
  <text class="muted" x="60" y="192" text-anchor="end" font-size="12">14</text>
  <text class="muted" x="60" y="148" text-anchor="end" font-size="12">16</text>
  <text class="muted" x="60" y="104" text-anchor="end" font-size="12">18</text>
  <text class="ink" x="22" y="186" text-anchor="middle" font-size="13" transform="rotate(-90 22 186)">y</text>
</svg>
