<?xml version="1.0" encoding="UTF-8"?>
<svg xmlns="http://www.w3.org/2000/svg" width="840" height="200" viewBox="0 0 840 200" role="img" aria-labelledby="gan-01-title">
<title id="gan-01-title">GAN pipeline overview</title>
<rect class="fig-bg" width="840" height="200" fill="none"/>

<text x="420.0" y="26.0" font-family="DejaVu Sans, Liberation Sans, Arial, sans-serif" font-size="15" font-weight="700" fill="#1A1A1A" text-anchor="middle">GAN — trò chơi adversarial: Generator ⇄ Discriminator</text>
<text x="420.0" y="46.0" font-family="DejaVu Sans, Liberation Sans, Arial, sans-serif" font-size="11" font-weight="500" fill="#5C6570" text-anchor="middle">G(z) → D(x) → L_D / L_G → train xen kẽ → mode collapse → hệ thống đầy đủ</text>
<rect x="70.0" y="70.0" width="95.0" height="56.0" rx="4" fill="#EEF1F5" stroke="#2F6FED" stroke-width="2"/>
<text x="117.5" y="93.2" font-family="DejaVu Sans, Liberation Sans, Arial, sans-serif" font-size="12" font-weight="600" fill="#1A1A1A" text-anchor="middle">Generator</text>
<text x="117.5" y="110.5" font-family="DejaVu Sans, Liberation Sans, Arial, sans-serif" font-size="10" font-weight="400" fill="#5C6570" text-anchor="middle">G(z)=tanh</text>
<rect x="187.0" y="70.0" width="100.0" height="56.0" rx="4" fill="#EEF1F5" stroke="#2F6FED" stroke-width="2"/>
<text x="237.0" y="93.2" font-family="DejaVu Sans, Liberation Sans, Arial, sans-serif" font-size="12" font-weight="600" fill="#1A1A1A" text-anchor="middle">Discrim.</text>
<text x="237.0" y="110.5" font-family="DejaVu Sans, Liberation Sans, Arial, sans-serif" font-size="10" font-weight="400" fill="#5C6570" text-anchor="middle">D(x)=σ</text>
<line x1="171.0" y1="98.0" x2="173.0" y2="98.0" stroke="#5C6570" stroke-width="2"/>
<polygon points="173.0,93.0 181.0,98.0 173.0,103.0" fill="#5C6570"/>
<rect x="309.0" y="70.0" width="95.0" height="56.0" rx="4" fill="#EEF1F5" stroke="#2F6FED" stroke-width="2"/>
<text x="356.5" y="93.2" font-family="DejaVu Sans, Liberation Sans, Arial, sans-serif" font-size="12" font-weight="600" fill="#1A1A1A" text-anchor="middle">Loss</text>
<text x="356.5" y="110.5" font-family="DejaVu Sans, Liberation Sans, Arial, sans-serif" font-size="10" font-weight="400" fill="#5C6570" text-anchor="middle">L_D, L_G</text>
<line x1="293.0" y1="98.0" x2="295.0" y2="98.0" stroke="#5C6570" stroke-width="2"/>
<polygon points="295.0,93.0 303.0,98.0 295.0,103.0" fill="#5C6570"/>
<rect x="426.0" y="70.0" width="100.0" height="56.0" rx="4" fill="#EEF1F5" stroke="#2F6FED" stroke-width="2"/>
<text x="476.0" y="93.2" font-family="DejaVu Sans, Liberation Sans, Arial, sans-serif" font-size="12" font-weight="600" fill="#1A1A1A" text-anchor="middle">Train</text>
<text x="476.0" y="110.5" font-family="DejaVu Sans, Liberation Sans, Arial, sans-serif" font-size="10" font-weight="400" fill="#5C6570" text-anchor="middle">xen kẽ k=1</text>
<line x1="410.0" y1="98.0" x2="412.0" y2="98.0" stroke="#5C6570" stroke-width="2"/>
<polygon points="412.0,93.0 420.0,98.0 412.0,103.0" fill="#5C6570"/>
<rect x="548.0" y="70.0" width="100.0" height="56.0" rx="4" fill="#EEF1F5" stroke="#2F6FED" stroke-width="2"/>
<text x="598.0" y="93.2" font-family="DejaVu Sans, Liberation Sans, Arial, sans-serif" font-size="12" font-weight="600" fill="#1A1A1A" text-anchor="middle">Collapse</text>
<text x="598.0" y="110.5" font-family="DejaVu Sans, Liberation Sans, Arial, sans-serif" font-size="10" font-weight="400" fill="#5C6570" text-anchor="middle">diversity</text>
<line x1="532.0" y1="98.0" x2="534.0" y2="98.0" stroke="#5C6570" stroke-width="2"/>
<polygon points="534.0,93.0 542.0,98.0 534.0,103.0" fill="#5C6570"/>
<rect x="670.0" y="70.0" width="100.0" height="56.0" rx="4" fill="#EEF1F5" stroke="#2F6FED" stroke-width="2"/>
<text x="720.0" y="93.2" font-family="DejaVu Sans, Liberation Sans, Arial, sans-serif" font-size="12" font-weight="600" fill="#1A1A1A" text-anchor="middle">System</text>
<text x="720.0" y="110.5" font-family="DejaVu Sans, Liberation Sans, Arial, sans-serif" font-size="10" font-weight="400" fill="#5C6570" text-anchor="middle">G + D</text>
<line x1="654.0" y1="98.0" x2="656.0" y2="98.0" stroke="#5C6570" stroke-width="2"/>
<polygon points="656.0,93.0 664.0,98.0 656.0,103.0" fill="#5C6570"/>
<text x="420.0" y="170.0" font-family="DejaVu Sans, Liberation Sans, Arial, sans-serif" font-size="11" font-weight="500" fill="#5C6570" text-anchor="middle">Ch.1 G  ·  Ch.2 D  ·  Ch.3 Loss  ·  Ch.4 Train  ·  Ch.5 Collapse  ·  Ch.6 Complete</text>
</svg>
